<svg width="10" height="11" viewBox="0 0 10 11" fill="none" xmlns="http://www.w3.org/2000/svg">
<g clip-path="url(#clip0_49_339)">
<path d="M5.45492 2.11157L7.02829 0.924172L7.72637 1.2728L7.63335 3.26956L5.45494 2.11157H5.45492ZM4.11492 6.82877L7.21813 3.66227L5.03179 2.49681L4.11492 6.82877ZM9.34064 2.07898L8.21505 1.51686L8.12135 3.52896L9.97849 4.51617L9.34064 2.07898ZM7.90805 3.97048L4.82842 6.86106L7.61263 5.55513C8.12084 6.8544 7.83309 8.42823 6.59516 9.4438C4.51509 11.1502 1.30106 10.0111 0.823795 7.39821C0.485799 5.5477 1.69862 3.93261 3.34353 3.46945L3.81598 6.27238L4.47252 2.18387L2.85957 1.28687L3.181 2.7364C1.15631 3.28182 -0.345324 5.25953 0.0690151 7.52791C0.6495 10.7058 4.55855 12.0913 7.08844 10.0158C8.59368 8.78099 8.9447 6.86709 8.32723 5.28707L9.5336 4.83456L7.90805 3.97048ZM6.53703 0.678842L5.17772 0L3.14232 0.882256L4.97593 1.85696L6.53701 0.678842H6.53703Z" fill="#BB9096"/>
</g>
<defs>
<clipPath id="clip0_49_339">
<rect width="10" height="11" fill="white"/>
</clipPath>
</defs>
</svg>
